<?xml version="1.0" encoding="utf-8"?>
<svg version="1.1" id="Layer_1" xmlns="http://www.w3.org/2000/svg" xmlns:xlink="http://www.w3.org/1999/xlink" width="128px" height="48px" xml:space="preserve">
<g id="PathID_17" transform="matrix(0.243439, 0.0864258, -0.0854797, 0.24379, 11.9, -5.55)" opacity="0.976563">
<path style="fill: #62eef7;fill-opacity:0.568627;" d="M169.45 48.75L160.45 66.15L178.1 75.1L178.35 75.35Q178.65 77.9 175.4 82.1Q170.4 89.35 161.4 94.75Q151.05 101.25 139.3 102.95Q148.8 113.7 152.2 132.6Q154.75 147.25 153 153.45L152.75 154L152.5 154L133.35 151L130.1 170.4L130.1 170.65L129.85 170.65Q127.4 172.1 118.65 168.9Q110.45 165.65 104 160.2Q93.3 151.5 89.1 139.55Q83.35 150.5 67.9 161.2Q53.75 171.15 48.5 171.15L48.05 171.15L48.05 170.65L45.1 151.5L25.9 154.45L25.65 154.45L25.45 154.2Q23.9 153 23.9 148.05Q23.9 139.05 28.4 128.1Q33.65 115.4 42.85 107.2Q28.4 104.95 14.25 92.5Q8.75 87.8 4.5 82.85Q0.8 78.35 0.3 76.1L0 75.65L17.7 66.7L8.75 49.05L9 48.75Q9.75 47.05 14.45 45.8Q24.15 42.8 36.9 43.8Q50.75 45.05 59.95 50.5Q56 36.05 63.5 18.65Q65.95 12.25 69.7 6.75Q72.7 1.8 74.65 0.25L75.15 0L75.4 0.55L89.35 14.2L103 0.55L103 0.25L103.5 0.25Q105.95 0.55 109.95 7Q115.45 15.2 118.15 25.85Q121.2 38.85 118.4 49.3Q129.85 41.55 148.5 42.8Q155.2 43.55 161.7 45.25Q167.2 46.8 169.15 48.05L169.65 48.5L169.45 48.75M117.4 50.3L117.4 50.5L117.7 50.5L117.4 50.3"></path>
</g>
<g id="PathID_18" transform="matrix(0.243439, 0.0864258, -0.0854797, 0.24379, 11.9, -5.55)" opacity="0.976563">
</g>
<g id="PathID_19" transform="matrix(0.531647, 0, 0, 0.531647, 16, 33.25)" opacity="0.972656">
<path style="fill:#FFFFFF;fill-opacity:1" d="M35.4 -5.7Q34.3 -4.45 32.75 -3.3Q31.2 -2.2 29.25 -1.35Q27.35 -0.5 25.05 0Q22.8 0.5 20.2 0.5Q15.8 0.5 12.55 -0.9Q9.3 -2.3 7.15 -4.8Q5 -7.3 3.95 -10.75Q2.9 -14.2 2.9 -18.35Q2.9 -22.6 3.95 -26Q5 -29.45 7.1 -31.85Q9.25 -34.25 12.45 -35.55Q15.65 -36.85 19.9 -36.85Q23 -36.85 25.35 -36.15Q27.75 -35.5 29.5 -34.3Q31.25 -33.15 32.5 -31.55Q33.75 -29.95 34.6 -28.15L29.35 -26.25Q28.8 -27.45 28 -28.55Q27.2 -29.65 26.05 -30.45Q24.9 -31.3 23.35 -31.75Q21.85 -32.25 19.9 -32.25Q17 -32.25 14.9 -31.25Q12.8 -30.25 11.4 -28.45Q10.05 -26.65 9.4 -24.05Q8.75 -21.5 8.75 -18.35Q8.75 -15.2 9.45 -12.55Q10.2 -9.95 11.6 -8.05Q13.05 -6.15 15.2 -5.1Q17.35 -4.05 20.2 -4.05Q22 -4.05 23.5 -4.4Q25.05 -4.75 26.25 -5.3Q27.5 -5.85 28.45 -6.5Q29.45 -7.2 30.1 -7.85L30.1 -14.15L20.3 -14.15L20.3 -18.5L35.4 -18.5L35.4 -5.7"></path>
</g>
<g id="PathID_20" transform="matrix(0.531647, 0, 0, 0.531647, 16, 33.25)" opacity="0.972656">
</g>
<g id="PathID_21" transform="matrix(0.466949, 0, 0, 0.466949, 50.8, 32.6)" opacity="0.996094">
<path style="fill:#B2B2B2;fill-opacity:0.568627" d="M31.5 -2.45Q26.1 0.6 19.5 0.6Q11.8 0.6 7.05 -4.35Q2.35 -9.3 2.35 -17.45Q2.35 -25.75 7.6 -31.1Q12.85 -36.45 20.95 -36.45Q26.8 -36.45 30.75 -34.55L30.75 -29.9Q26.4 -32.65 20.45 -32.65Q14.45 -32.65 10.6 -28.5Q6.75 -24.35 6.75 -17.75Q6.75 -10.95 10.3 -7.05Q13.9 -3.15 20 -3.15Q24.2 -3.15 27.3 -4.85L27.3 -14.9L19.45 -14.9L19.45 -18.7L31.5 -18.7L31.5 -2.45"></path>
</g>
<g id="PathID_22" transform="matrix(0.466949, 0, 0, 0.466949, 50.8, 32.6)" opacity="0.996094">
</g>
<g id="PathID_23" transform="matrix(0.466949, 0, 0, 0.466949, 67.2, 32.6)" opacity="0.996094">
<path style="fill:#B2B2B2;fill-opacity:0.568627" d="M4.7 0L4.7 -35.85L14.6 -35.85Q33.55 -35.85 33.55 -18.35Q33.55 -10.05 28.25 -5Q23 0 14.2 0L4.7 0M8.9 -32.05L8.9 -3.8L14.25 -3.8Q21.3 -3.8 25.2 -7.55Q29.15 -11.35 29.15 -18.25Q29.15 -32.05 14.5 -32.05L8.9 -32.05"></path>
</g>
<g id="PathID_24" transform="matrix(0.466949, 0, 0, 0.466949, 67.2, 32.6)" opacity="0.996094">
</g>
<g id="PathID_25" transform="matrix(0.466949, 0, 0, 0.466949, 83.95, 32.6)" opacity="0.996094">
<path style="fill:#B2B2B2;fill-opacity:0.568627" d="M22.45 0L18.35 0L18.35 -4L18.25 -4Q15.6 0.6 10.4 0.6Q6.55 0.6 4.4 -1.4Q2.25 -3.45 2.25 -6.8Q2.25 -13.95 10.7 -15.15L18.35 -16.2Q18.35 -22.75 13.1 -22.75Q8.45 -22.75 4.75 -19.6L4.75 -23.8Q8.5 -26.2 13.45 -26.2Q22.45 -26.2 22.45 -16.65L22.45 0M18.35 -12.95L12.2 -12.1Q9.35 -11.7 7.9 -10.65Q6.45 -9.65 6.45 -7.1Q6.45 -5.2 7.75 -4Q9.1 -2.85 11.35 -2.85Q14.4 -2.85 16.35 -4.95Q18.35 -7.1 18.35 -10.4L18.35 -12.95"></path>
</g>
<g id="PathID_26" transform="matrix(0.466949, 0, 0, 0.466949, 83.95, 32.6)" opacity="0.996094">
</g>
<g id="PathID_27" transform="matrix(0.466949, 0, 0, 0.466949, 96.1, 32.6)" opacity="0.996094">
<path style="fill:#B2B2B2;fill-opacity:0.568627" d="M5.95 -32.1Q4.85 -32.1 4.05 -32.85Q3.3 -33.6 3.3 -34.75Q3.3 -35.9 4.05 -36.65Q4.85 -37.4 5.95 -37.4Q7.1 -37.4 7.85 -36.65Q8.65 -35.9 8.65 -34.75Q8.65 -33.65 7.85 -32.85Q7.1 -32.1 5.95 -32.1M7.95 -7.15Q7.95 -3.6 10.7 -3.6Q11.8 -3.6 12.65 -3.9L12.65 -0.2Q12.2 -0.05 11.4 0.05Q10.6 0.15 9.75 0.15Q8.5 0.15 7.4 -0.25Q6.35 -0.65 5.55 -1.45Q4.8 -2.3 4.3 -3.5Q3.85 -4.75 3.85 -6.4L3.85 -25.6L7.95 -25.6L7.95 -7.15"></path>
</g>
<g id="PathID_28" transform="matrix(0.466949, 0, 0, 0.466949, 96.1, 32.6)" opacity="0.996094">
</g>
<g id="PathID_29" transform="matrix(0.466949, 0, 0, 0.466949, 102.1, 32.6)" opacity="0.996094">
<path style="fill:#B2B2B2;fill-opacity:0.568627" d="M7.95 -7.15Q7.95 -3.6 10.7 -3.6Q11.8 -3.6 12.65 -3.9L12.65 -0.2Q12.2 -0.05 11.4 0.05Q10.6 0.15 9.75 0.15Q8.5 0.15 7.4 -0.25Q6.35 -0.65 5.55 -1.45Q4.8 -2.3 4.3 -3.5Q3.85 -4.75 3.85 -6.4L3.85 -37.9L7.95 -37.9L7.95 -7.15"></path>
</g>
<g id="PathID_30" transform="matrix(0.466949, 0, 0, 0.466949, 102.1, 32.6)" opacity="0.996094">
</g>
<g id="PathID_31" transform="matrix(0.466949, 0, 0, 0.466949, 108.15, 32.6)" opacity="0.996094">
<path style="fill:#B2B2B2;fill-opacity:0.568627" d="M24.5 -25.6L12.75 4.1Q9.6 12.05 3.9 12.05Q2.3 12.05 1.2 11.75L1.2 8.05Q2.55 8.5 3.65 8.5Q6.75 8.5 8.3 4.8L10.35 -0.05L0.35 -25.6L4.9 -25.6L11.8 -5.9L12.35 -3.95L12.5 -3.95Q12.6 -4.55 13 -5.85L20.25 -25.6L24.5 -25.6"></path>
</g>
<g id="PathID_32" transform="matrix(0.466949, 0, 0, 0.466949, 108.15, 32.6)" opacity="0.996094">
</g>
</svg>